<svg width="13" height="14" viewBox="0 0 13 14" fill="none" xmlns="http://www.w3.org/2000/svg">
<path fill-rule="evenodd" clip-rule="evenodd" d="M0 6.62037C0 4.86454 0.684819 3.18062 1.90381 1.93906C3.12279 0.697501 4.77609 0 6.5 0C8.22391 0 9.87721 0.697501 11.0962 1.93906C12.3152 3.18062 13 4.86454 13 6.62037C13 8.3762 12.3152 10.0601 11.0962 11.3017C9.87721 12.5432 8.22391 13.2407 6.5 13.2407C4.77609 13.2407 3.12279 12.5432 1.90381 11.3017C0.684819 10.0601 0 8.3762 0 6.62037H0ZM6.12907 9.45389L9.87133 4.68899L9.19533 4.13817L6.00427 8.19955L3.744 6.28141L3.18933 6.95933L6.12907 9.45477V9.45389Z" fill="black"/>
</svg>
